<svg width="2779" height="825" xmlns="http://www.w3.org/2000/svg" xmlns:xlink="http://www.w3.org/1999/xlink" xml:space="preserve" overflow="hidden"><g transform="translate(-987 -957)"><path d="M2970.5 1018C2970.5 1002.81 2982.81 990.5 2998 990.5L3108 990.5C3123.19 990.5 3135.5 1002.81 3135.5 1018L3135.5 1128C3135.5 1143.19 3123.19 1155.5 3108 1155.5L2998 1155.5C2982.81 1155.5 2970.5 1143.19 2970.5 1128Z" stroke="#156082" stroke-width="6.875" stroke-linecap="round" stroke-linejoin="round" stroke-miterlimit="10" fill="none" fill-rule="evenodd"/><rect x="2937" y="957" width="99" height="231" fill="#FFFFFF"/><rect x="2937" y="1089" width="231" height="99" fill="#FFFFFF"/><path d="M0 27.5005C-1.05034e-14 12.3124 12.3124 0 27.5005 0L137.499 0C152.688-5.25168e-15 165 12.3124 165 27.5005L165 137.499C165 152.688 152.688 165 137.499 165L27.5005 165C12.3124 165 0 152.688 0 137.499Z" stroke="#156082" stroke-width="6.875" stroke-linecap="round" stroke-linejoin="round" stroke-miterlimit="10" fill="none" fill-rule="evenodd" transform="matrix(1 0 0 -1 1485.5 1650.5)"/><rect x="0" y="0" width="99" height="231" fill="#FFFFFF" transform="matrix(1 0 0 -1 1452 1683)"/><rect x="0" y="0" width="231" height="99" fill="#FFFFFF" transform="matrix(1 0 0 -1 1452 1551)"/><path d="M0 27.5005C-1.05034e-14 12.3124 12.3124 0 27.5005 0L137.499 0C152.688-5.25168e-15 165 12.3124 165 27.5005L165 137.499C165 152.688 152.688 165 137.499 165L27.5005 165C12.3124 165 0 152.688 0 137.499Z" stroke="#156082" stroke-width="6.875" stroke-linecap="round" stroke-linejoin="round" stroke-miterlimit="10" fill="none" fill-rule="evenodd" transform="matrix(-1 0 0 1 1815.5 990.5)"/><rect x="0" y="0" width="99" height="231" fill="#FFFFFF" transform="matrix(-1 0 0 1 1848 957)"/><rect x="0" y="0" width="231" height="99" fill="#FFFFFF" transform="matrix(-1 0 0 1 1848 1089)"/><path d="M3432.5 1018C3432.5 1002.81 3444.81 990.5 3460 990.5L3570 990.5C3585.19 990.5 3597.5 1002.81 3597.5 1018L3597.5 1128C3597.5 1143.19 3585.19 1155.5 3570 1155.5L3460 1155.5C3444.81 1155.5 3432.5 1143.19 3432.5 1128Z" stroke="#156082" stroke-width="6.875" stroke-linecap="round" stroke-linejoin="round" stroke-miterlimit="10" fill="none" fill-rule="evenodd"/><rect x="3399" y="957" width="99" height="231" fill="#FFFFFF"/><rect x="3399" y="1089" width="231" height="99" fill="#FFFFFF"/><path d="M1485 1199C1485 1174.7 1504.7 1155 1529 1155L1771 1155C1795.3 1155 1815 1174.7 1815 1199L1815 1375C1815 1399.3 1795.3 1419 1771 1419L1529 1419C1504.7 1419 1485 1399.3 1485 1375Z" fill="#156082" fill-rule="evenodd"/><text fill="#FFFFFF" font-family="LM Roman 10,LM Roman 10_MSFontService,sans-serif" font-weight="700" font-size="41" transform="matrix(1 0 0 1 1570.09 1252)">Prompt </text><text fill="#FFFFFF" font-family="LM Roman 10,LM Roman 10_MSFontService,sans-serif" font-weight="700" font-size="41" transform="matrix(1 0 0 1 1558.33 1302)">Engineer</text><text fill="#FFFFFF" font-family="LM Roman 10,LM Roman 10_MSFontService,sans-serif" font-weight="700" font-size="41" transform="matrix(1 0 0 1 1569.22 1351)">(Script)</text><path d="M990.5 1243.5C990.5 1231.35 1000.35 1221.5 1012.5 1221.5L1298.5 1221.5C1310.65 1221.5 1320.5 1231.35 1320.5 1243.5L1320.5 1331.5C1320.5 1343.65 1310.65 1353.5 1298.5 1353.5L1012.5 1353.5C1000.35 1353.5 990.5 1343.65 990.5 1331.5Z" stroke="#156082" stroke-width="6.875" stroke-linecap="round" stroke-linejoin="round" stroke-miterlimit="10" fill="none" fill-rule="evenodd"/><text font-family="LM Roman 10,LM Roman 10_MSFontService,sans-serif" font-weight="400" font-size="41" transform="matrix(1 0 0 1 1027.81 1301)">Textual Input</text><path d="M990.5 1606.5C990.5 1594.35 1000.35 1584.5 1012.5 1584.5L1298.5 1584.5C1310.65 1584.5 1320.5 1594.35 1320.5 1606.5L1320.5 1694.5C1320.5 1706.65 1310.65 1716.5 1298.5 1716.5L1012.5 1716.5C1000.35 1716.5 990.5 1706.65 990.5 1694.5Z" stroke="#156082" stroke-width="6.875" stroke-linecap="round" stroke-linejoin="round" stroke-miterlimit="10" fill="none" fill-rule="evenodd"/><text font-family="LM Roman 10,LM Roman 10_MSFontService,sans-serif" font-weight="400" font-size="41" transform="matrix(1 0 0 1 1041.56 1664)">Visual Input</text><path d="M1980 1562C1980 1537.7 1999.7 1518 2024 1518L2266 1518C2290.3 1518 2310 1537.7 2310 1562L2310 1738C2310 1762.3 2290.3 1782 2266 1782L2024 1782C1999.7 1782 1980 1762.3 1980 1738Z" fill="#156082" fill-rule="evenodd"/><text fill="#FFFFFF" font-family="LM Roman 10,LM Roman 10_MSFontService,sans-serif" font-weight="700" font-size="41" transform="matrix(1 0 0 1 2090.57 1640)">CNN</text><text fill="#FFFFFF" font-family="LM Roman 10,LM Roman 10_MSFontService,sans-serif" font-weight="700" font-size="41" transform="matrix(1 0 0 1 2056.2 1690)">(Neural)</text><path d="M1320.5 1647.06 1973.7 1647.06C1975.6 1647.06 1977.14 1648.6 1977.14 1650.5 1977.14 1652.4 1975.6 1653.94 1973.7 1653.94L1320.5 1653.94C1318.6 1653.94 1317.06 1652.4 1317.06 1650.5 1317.06 1648.6 1318.6 1647.06 1320.5 1647.06ZM1947.93 1631.49 1980.52 1650.5 1947.93 1669.51C1946.29 1670.47 1944.18 1669.91 1943.22 1668.27 1942.27 1666.63 1942.82 1664.53 1944.46 1663.57L1971.96 1647.53 1971.96 1653.47 1944.46 1637.43C1942.82 1636.47 1942.27 1634.37 1943.22 1632.73 1944.18 1631.09 1946.29 1630.53 1947.93 1631.49Z" fill="#156082"/><path d="M1647.06 1568 1647.06 1426.31C1647.06 1424.41 1648.6 1422.87 1650.5 1422.87 1652.4 1422.87 1653.94 1424.41 1653.94 1426.31L1653.94 1568C1653.94 1569.9 1652.4 1571.44 1650.5 1571.44 1648.6 1571.44 1647.06 1569.9 1647.06 1568ZM1631.49 1452.07 1650.5 1419.48 1669.51 1452.07C1670.47 1453.71 1669.91 1455.82 1668.27 1456.78 1666.63 1457.73 1664.53 1457.18 1663.57 1455.54L1647.53 1428.04 1653.47 1428.04 1637.43 1455.54C1636.47 1457.18 1634.37 1457.73 1632.73 1456.78 1631.09 1455.82 1630.53 1453.71 1631.49 1452.07Z" fill="#156082"/><path d="M2970 1562C2970 1537.7 2989.7 1518 3014 1518L3256 1518C3280.3 1518 3300 1537.7 3300 1562L3300 1738C3300 1762.3 3280.3 1782 3256 1782L3014 1782C2989.7 1782 2970 1762.3 2970 1738Z" fill="#156082" fill-rule="evenodd"/><text fill="#FFFFFF" font-family="LM Roman 10,LM Roman 10_MSFontService,sans-serif" font-weight="700" font-size="41" transform="matrix(1 0 0 1 3059.09 1640)">D</text><text fill="#FFFFFF" font-family="LM Roman 10,LM Roman 10_MSFontService,sans-serif" font-weight="700" font-size="41" transform="matrix(1 0 0 1 3095.75 1640)">-</text><text fill="#FFFFFF" font-family="LM Roman 10,LM Roman 10_MSFontService,sans-serif" font-weight="700" font-size="41" transform="matrix(1 0 0 1 3111.8 1640)">LTN</text><text fill="#FFFFFF" font-family="LM Roman 10,LM Roman 10_MSFontService,sans-serif" font-weight="700" font-size="41" transform="matrix(1 0 0 1 3022.42 1690)">(Symbolic)</text><path d="M3300.5 1647.06 3425.69 1647.06C3427.59 1647.06 3429.13 1648.6 3429.13 1650.5 3429.13 1652.4 3427.59 1653.94 3425.69 1653.94L3300.5 1653.94C3298.6 1653.94 3297.06 1652.4 3297.06 1650.5 3297.06 1648.6 3298.6 1647.06 3300.5 1647.06ZM3399.93 1631.49 3432.52 1650.5 3399.93 1669.51C3398.29 1670.47 3396.18 1669.91 3395.22 1668.27 3394.27 1666.63 3394.82 1664.53 3396.46 1663.57L3423.96 1647.53 3423.96 1653.47 3396.46 1637.43C3394.82 1636.47 3394.27 1634.37 3395.22 1632.73 3396.18 1631.09 3398.29 1630.53 3399.93 1631.49Z" fill="#156082"/><path d="M2310.5 1647.06 2468.69 1647.06C2470.59 1647.06 2472.13 1648.6 2472.13 1650.5 2472.13 1652.4 2470.59 1653.94 2468.69 1653.94L2310.5 1653.94C2308.6 1653.94 2307.06 1652.4 2307.06 1650.5 2307.06 1648.6 2308.6 1647.06 2310.5 1647.06ZM2442.93 1631.49 2475.52 1650.5 2442.93 1669.51C2441.29 1670.47 2439.18 1669.91 2438.22 1668.27 2437.27 1666.63 2437.82 1664.53 2439.46 1663.57L2466.96 1647.53 2466.96 1653.47 2439.46 1637.43C2437.82 1636.47 2437.27 1634.37 2438.22 1632.73 2439.18 1631.09 2441.29 1630.53 2442.93 1631.49Z" fill="#156082"/><path d="M2805.5 1647.06 2963.69 1647.06C2965.59 1647.06 2967.13 1648.6 2967.13 1650.5 2967.13 1652.4 2965.59 1653.94 2963.69 1653.94L2805.5 1653.94C2803.6 1653.94 2802.06 1652.4 2802.06 1650.5 2802.06 1648.6 2803.6 1647.06 2805.5 1647.06ZM2937.93 1631.49 2970.52 1650.5 2937.93 1669.51C2936.29 1670.47 2934.18 1669.91 2933.22 1668.27 2932.27 1666.63 2932.82 1664.53 2934.46 1663.57L2961.96 1647.53 2961.96 1653.47 2934.46 1637.43C2932.82 1636.47 2932.27 1634.37 2933.22 1632.73 2934.18 1631.09 2936.29 1630.53 2937.93 1631.49Z" fill="#156082"/><path d="M3432.5 1606.5C3432.5 1594.35 3442.35 1584.5 3454.5 1584.5L3740.5 1584.5C3752.65 1584.5 3762.5 1594.35 3762.5 1606.5L3762.5 1694.5C3762.5 1706.65 3752.65 1716.5 3740.5 1716.5L3454.5 1716.5C3442.35 1716.5 3432.5 1706.65 3432.5 1694.5Z" stroke="#156082" stroke-width="6.875" stroke-linecap="round" stroke-linejoin="round" stroke-miterlimit="10" fill="#C1E5F5" fill-rule="evenodd"/><text font-family="LM Roman 10,LM Roman 10_MSFontService,sans-serif" font-weight="400" font-size="41" transform="matrix(1 0 0 1 3476.97 1664)">Final Output</text><path d="M2970.5 1243.5C2970.5 1231.35 2980.35 1221.5 2992.5 1221.5L3278.5 1221.5C3290.65 1221.5 3300.5 1231.35 3300.5 1243.5L3300.5 1331.5C3300.5 1343.65 3290.65 1353.5 3278.5 1353.5L2992.5 1353.5C2980.35 1353.5 2970.5 1343.65 2970.5 1331.5Z" stroke="#156082" stroke-width="6.875" stroke-linecap="round" stroke-linejoin="round" stroke-miterlimit="10" fill="#C1E5F5" fill-rule="evenodd"/><text font-family="LM Roman 10,LM Roman 10_MSFontService,sans-serif" font-weight="400" font-size="41" transform="matrix(1 0 0 1 2996.64 1301)">Symbolic Rules</text><path d="M2805.5 1284.06 2963.69 1284.06C2965.59 1284.06 2967.13 1285.6 2967.13 1287.5 2967.13 1289.4 2965.59 1290.94 2963.69 1290.94L2805.5 1290.94C2803.6 1290.94 2802.06 1289.4 2802.06 1287.5 2802.06 1285.6 2803.6 1284.06 2805.5 1284.06ZM2937.93 1268.49 2970.52 1287.5 2937.93 1306.51C2936.29 1307.47 2934.18 1306.91 2933.22 1305.27 2932.27 1303.63 2932.82 1301.53 2934.46 1300.57L2961.96 1284.53 2961.96 1290.47 2934.46 1274.43C2932.82 1273.47 2932.27 1271.37 2933.22 1269.73 2934.18 1268.09 2936.29 1267.53 2937.93 1268.49Z" fill="#156082"/><path d="M1732.5 990.5 3514.5 990.5" stroke="#156082" stroke-width="6.875" stroke-linecap="round" stroke-linejoin="round" stroke-miterlimit="10" fill="none" fill-rule="evenodd"/><path d="M1320.5 1284.06 1478.69 1284.06C1480.59 1284.06 1482.13 1285.6 1482.13 1287.5 1482.13 1289.4 1480.59 1290.94 1478.69 1290.94L1320.5 1290.94C1318.6 1290.94 1317.06 1289.4 1317.06 1287.5 1317.06 1285.6 1318.6 1284.06 1320.5 1284.06ZM1452.93 1268.49 1485.52 1287.5 1452.93 1306.51C1451.29 1307.47 1449.18 1306.91 1448.22 1305.27 1447.27 1303.63 1447.82 1301.53 1449.46 1300.57L1476.96 1284.53 1476.96 1290.47 1449.46 1274.43C1447.82 1273.47 1447.27 1271.37 1448.22 1269.73 1449.18 1268.09 1451.29 1267.53 1452.93 1268.49Z" fill="#156082"/><path d="M0 0 0.000360892 511.5" stroke="#156082" stroke-width="6.875" stroke-linecap="round" stroke-linejoin="round" stroke-miterlimit="10" fill="none" fill-rule="evenodd" transform="matrix(-1 0 0 1 3597.5 1073.5)"/><path d="M2475 1199C2475 1174.7 2494.7 1155 2519 1155L2761 1155C2785.3 1155 2805 1174.7 2805 1199L2805 1375C2805 1399.3 2785.3 1419 2761 1419L2519 1419C2494.7 1419 2475 1399.3 2475 1375Z" fill="#156082" fill-rule="evenodd"/><text fill="#FFFFFF" font-family="LM Roman 10,LM Roman 10_MSFontService,sans-serif" font-weight="700" font-size="41" transform="matrix(1 0 0 1 2585 1277)">VLM</text><text fill="#FFFFFF" font-family="LM Roman 10,LM Roman 10_MSFontService,sans-serif" font-weight="700" font-size="41" transform="matrix(1 0 0 1 2551.2 1327)">(Neural)</text><path d="M1980.5 1243.5C1980.5 1231.35 1990.35 1221.5 2002.5 1221.5L2288.5 1221.5C2300.65 1221.5 2310.5 1231.35 2310.5 1243.5L2310.5 1331.5C2310.5 1343.65 2300.65 1353.5 2288.5 1353.5L2002.5 1353.5C1990.35 1353.5 1980.5 1343.65 1980.5 1331.5Z" stroke="#156082" stroke-width="6.875" stroke-linecap="round" stroke-linejoin="round" stroke-miterlimit="10" fill="#C1E5F5" fill-rule="evenodd"/><text font-family="LM Roman 10,LM Roman 10_MSFontService,sans-serif" font-weight="400" font-size="41" transform="matrix(1 0 0 1 2075.96 1301)">Prompt</text><path d="M1815.5 1284.06 1973.69 1284.06C1975.59 1284.06 1977.13 1285.6 1977.13 1287.5 1977.13 1289.4 1975.59 1290.94 1973.69 1290.94L1815.5 1290.94C1813.6 1290.94 1812.06 1289.4 1812.06 1287.5 1812.06 1285.6 1813.6 1284.06 1815.5 1284.06ZM1947.93 1268.49 1980.52 1287.5 1947.93 1306.51C1946.29 1307.47 1944.18 1306.91 1943.22 1305.27 1942.27 1303.63 1942.82 1301.53 1944.46 1300.57L1971.96 1284.53 1971.96 1290.47 1944.46 1274.43C1942.82 1273.47 1942.27 1271.37 1943.22 1269.73 1944.18 1268.09 1946.29 1267.53 1947.93 1268.49Z" fill="#156082"/><path d="M2310.5 1284.06 2468.69 1284.06C2470.59 1284.06 2472.13 1285.6 2472.13 1287.5 2472.13 1289.4 2470.59 1290.94 2468.69 1290.94L2310.5 1290.94C2308.6 1290.94 2307.06 1289.4 2307.06 1287.5 2307.06 1285.6 2308.6 1284.06 2310.5 1284.06ZM2442.93 1268.49 2475.52 1287.5 2442.93 1306.51C2441.29 1307.47 2439.18 1306.91 2438.22 1305.27 2437.27 1303.63 2437.82 1301.53 2439.46 1300.57L2466.96 1284.53 2466.96 1290.47 2439.46 1274.43C2437.82 1273.47 2437.27 1271.37 2438.22 1269.73 2439.18 1268.09 2441.29 1267.53 2442.93 1268.49Z" fill="#156082"/><path d="M2475.5 1606.5C2475.5 1594.35 2485.35 1584.5 2497.5 1584.5L2783.5 1584.5C2795.65 1584.5 2805.5 1594.35 2805.5 1606.5L2805.5 1694.5C2805.5 1706.65 2795.65 1716.5 2783.5 1716.5L2497.5 1716.5C2485.35 1716.5 2475.5 1706.65 2475.5 1694.5Z" stroke="#156082" stroke-width="6.875" stroke-linecap="round" stroke-linejoin="round" stroke-miterlimit="10" fill="#C1E5F5" fill-rule="evenodd"/><text font-family="LM Roman 10,LM Roman 10_MSFontService,sans-serif" font-weight="400" font-size="41" transform="matrix(1 0 0 1 2529.71 1664)">Embedding</text><text font-family="LM Roman 10,LM Roman 10_MSFontService,sans-serif" font-weight="400" font-size="41" transform="matrix(1 0 0 1 2734.24 1664)">s</text><path d="M3138.94 1353.5 3138.94 1511.69C3138.94 1513.59 3137.4 1515.13 3135.5 1515.13 3133.6 1515.13 3132.06 1513.59 3132.06 1511.69L3132.06 1353.5C3132.06 1351.6 3133.6 1350.06 3135.5 1350.06 3137.4 1350.06 3138.94 1351.6 3138.94 1353.5ZM3154.51 1485.93 3135.5 1518.52 3116.49 1485.93C3115.53 1484.29 3116.09 1482.18 3117.73 1481.22 3119.37 1480.27 3121.47 1480.82 3122.43 1482.46L3138.47 1509.96 3132.53 1509.96 3148.57 1482.46C3149.53 1480.82 3151.63 1480.27 3153.27 1481.22 3154.91 1482.18 3155.47 1484.29 3154.51 1485.93Z" fill="#156082"/><path d="M1653.94 1073.5 1653.94 1149.19C1653.94 1151.09 1652.4 1152.63 1650.5 1152.63 1648.6 1152.63 1647.06 1151.09 1647.06 1149.19L1647.06 1073.5C1647.06 1071.6 1648.6 1070.06 1650.5 1070.06 1652.4 1070.06 1653.94 1071.6 1653.94 1073.5ZM1669.51 1123.43 1650.5 1156.02 1631.49 1123.43C1630.53 1121.79 1631.09 1119.68 1632.73 1118.72 1634.37 1117.77 1636.47 1118.32 1637.43 1119.96L1653.47 1147.46 1647.53 1147.46 1663.57 1119.96C1664.53 1118.32 1666.63 1117.77 1668.27 1118.72 1669.91 1119.68 1670.47 1121.79 1669.51 1123.43Z" fill="#156082"/><path d="M0 0 0.000360892 148.5" stroke="#156082" stroke-width="6.875" stroke-linecap="round" stroke-linejoin="round" stroke-miterlimit="10" fill="none" fill-rule="evenodd" transform="matrix(-1 0 0 1 3135.5 1073.5)"/></g></svg>